<svg xmlns="http://www.w3.org/2000/svg" viewBox="0 0 64 64">
  <path fill="#c8d0e0" d="M14 36 Q6 36 6 27 Q6 18 18 18 Q22 7 32 7 Q45 7 47 18 Q58 18 58 27 Q58 36 50 36 Z"/>
  <g stroke="#4ea3ff" stroke-width="3" stroke-linecap="round">
    <line x1="22" y1="40" x2="20" y2="48"/>
    <line x1="32" y1="40" x2="30" y2="48"/>
    <line x1="42" y1="40" x2="40" y2="48"/>
  </g>
  <g stroke="#a3c8ff" stroke-width="1.8" stroke-linecap="round">
    <g transform="translate(20 55)">
      <line x1="-3" y1="0" x2="3" y2="0"/>
      <line x1="0" y1="-3" x2="0" y2="3"/>
      <line x1="-2.1" y1="-2.1" x2="2.1" y2="2.1"/>
      <line x1="-2.1" y1="2.1" x2="2.1" y2="-2.1"/>
    </g>
    <g transform="translate(32 55)">
      <line x1="-3" y1="0" x2="3" y2="0"/>
      <line x1="0" y1="-3" x2="0" y2="3"/>
      <line x1="-2.1" y1="-2.1" x2="2.1" y2="2.1"/>
      <line x1="-2.1" y1="2.1" x2="2.1" y2="-2.1"/>
    </g>
    <g transform="translate(44 55)">
      <line x1="-3" y1="0" x2="3" y2="0"/>
      <line x1="0" y1="-3" x2="0" y2="3"/>
      <line x1="-2.1" y1="-2.1" x2="2.1" y2="2.1"/>
      <line x1="-2.1" y1="2.1" x2="2.1" y2="-2.1"/>
    </g>
  </g>
</svg>
