<svg xmlns="http://www.w3.org/2000/svg" viewBox="0 0 64 64">
  <path fill="#c8d0e0" d="M14 36 Q6 36 6 27 Q6 18 18 18 Q22 7 32 7 Q45 7 47 18 Q58 18 58 27 Q58 36 50 36 Z"/>
  <g stroke="#ffffff" stroke-width="1.6" stroke-linecap="round">
    <g transform="translate(26 50)">
      <line x1="-3" y1="0" x2="3" y2="0"/>
      <line x1="0" y1="-3" x2="0" y2="3"/>
      <line x1="-2.1" y1="-2.1" x2="2.1" y2="2.1"/>
      <line x1="-2.1" y1="2.1" x2="2.1" y2="-2.1"/>
    </g>
    <g transform="translate(38 50)">
      <line x1="-3" y1="0" x2="3" y2="0"/>
      <line x1="0" y1="-3" x2="0" y2="3"/>
      <line x1="-2.1" y1="-2.1" x2="2.1" y2="2.1"/>
      <line x1="-2.1" y1="2.1" x2="2.1" y2="-2.1"/>
    </g>
  </g>
</svg>
