<svg xmlns="http://www.w3.org/2000/svg" viewBox="0 0 64 64">
  <path fill="#c8d0e0" d="M14 36 Q6 36 6 27 Q6 18 18 18 Q22 7 32 7 Q45 7 47 18 Q58 18 58 27 Q58 36 50 36 Z"/>
  <g stroke="#ffffff" stroke-width="2.6" stroke-linecap="round">
    <g transform="translate(16 47)">
      <line x1="-3.5" y1="0" x2="3.5" y2="0"/>
      <line x1="0" y1="-3.5" x2="0" y2="3.5"/>
      <line x1="-2.5" y1="-2.5" x2="2.5" y2="2.5"/>
      <line x1="-2.5" y1="2.5" x2="2.5" y2="-2.5"/>
    </g>
    <g transform="translate(28 53)">
      <line x1="-3.5" y1="0" x2="3.5" y2="0"/>
      <line x1="0" y1="-3.5" x2="0" y2="3.5"/>
      <line x1="-2.5" y1="-2.5" x2="2.5" y2="2.5"/>
      <line x1="-2.5" y1="2.5" x2="2.5" y2="-2.5"/>
    </g>
    <g transform="translate(40 47)">
      <line x1="-3.5" y1="0" x2="3.5" y2="0"/>
      <line x1="0" y1="-3.5" x2="0" y2="3.5"/>
      <line x1="-2.5" y1="-2.5" x2="2.5" y2="2.5"/>
      <line x1="-2.5" y1="2.5" x2="2.5" y2="-2.5"/>
    </g>
    <g transform="translate(48 53)">
      <line x1="-3.5" y1="0" x2="3.5" y2="0"/>
      <line x1="0" y1="-3.5" x2="0" y2="3.5"/>
      <line x1="-2.5" y1="-2.5" x2="2.5" y2="2.5"/>
      <line x1="-2.5" y1="2.5" x2="2.5" y2="-2.5"/>
    </g>
    <g transform="translate(34 41)">
      <line x1="-3.5" y1="0" x2="3.5" y2="0"/>
      <line x1="0" y1="-3.5" x2="0" y2="3.5"/>
      <line x1="-2.5" y1="-2.5" x2="2.5" y2="2.5"/>
      <line x1="-2.5" y1="2.5" x2="2.5" y2="-2.5"/>
    </g>
  </g>
</svg>
